HIERARCHY
ROOT hip
{
OFFSET 0 95.47 0.19
CHANNELS 6 Xposition Yposition Zposition Zrotation Xrotation Yrotation
JOINT abdomen
{
OFFSET 0 7.23 0
CHANNELS 6 Xposition Yposition Zposition Zrotation Xrotation Yrotation
JOINT chest
{
OFFSET 0 16.54 0
CHANNELS 6 Xposition Yposition Zposition Zrotation Xrotation Yrotation
JOINT neck
{
OFFSET 0 34.21 0
CHANNELS 6 Xposition Yposition Zposition Zrotation Xrotation Yrotation
JOINT head
{
OFFSET 0 6.29 0
CHANNELS 6 Xposition Yposition Zposition Zrotation Xrotation Yrotation
End Site
{
OFFSET 0 21.21 0
}
}
}
JOINT lCollar
{
OFFSET 4.06 26.61 -1.12
CHANNELS 6 Xposition Yposition Zposition Zrotation Xrotation Yrotation
JOINT lShldr
{
OFFSET 14.17 0 0
CHANNELS 6 Xposition Yposition Zposition Zrotation Xrotation Yrotation
JOINT lForeArm
{
OFFSET 26.12 0 0
CHANNELS 6 Xposition Yposition Zposition Zrotation Xrotation Yrotation
JOINT lHand
{
OFFSET 27.71 0 0
CHANNELS 6 Xposition Yposition Zposition Zrotation Xrotation Yrotation
JOINT lThumb1
{
OFFSET 2.29 -0.46 1.83
CHANNELS 6 Xposition Yposition Zposition Zrotation Xrotation Yrotation
JOINT lThumb2
{
OFFSET 5.29 0 0
CHANNELS 6 Xposition Yposition Zposition Zrotation Xrotation Yrotation
JOINT lThumb3
{
OFFSET 3.01 0 0
CHANNELS 6 Xposition Yposition Zposition Zrotation Xrotation Yrotation
End Site
{
OFFSET 2.62 0 0
}
}
}
}
JOINT lIndex1
{
OFFSET 9.37 0.29 2.59
CHANNELS 6 Xposition Yposition Zposition Zrotation Xrotation Yrotation
JOINT lIndex2
{
OFFSET 4.34 0 0
CHANNELS 6 Xposition Yposition Zposition Zrotation Xrotation Yrotation
JOINT lIndex3
{
OFFSET 2.16 0 0
CHANNELS 6 Xposition Yposition Zposition Zrotation Xrotation Yrotation
End Site
{
OFFSET 2.20 0 0
}
}
}
}
JOINT lMid1
{
OFFSET 9.47 0.83 0.29
CHANNELS 6 Xposition Yposition Zposition Zrotation Xrotation Yrotation
JOINT lMid2
{
OFFSET 4.77 0 0
CHANNELS 6 Xposition Yposition Zposition Zrotation Xrotation Yrotation
JOINT lMid3
{
OFFSET 2.87 0 0
CHANNELS 6 Xposition Yposition Zposition Zrotation Xrotation Yrotation
End Site
{
OFFSET 2.09 0 0
}
}
}
}
JOINT lRing1
{
OFFSET 8.65 1.01 -1.70
CHANNELS 6 Xposition Yposition Zposition Zrotation Xrotation Yrotation
JOINT lRing2
{
OFFSET 4.54 0 0
CHANNELS 6 Xposition Yposition Zposition Zrotation Xrotation Yrotation
JOINT lRing3
{
OFFSET 2.50 0 0
CHANNELS 6 Xposition Yposition Zposition Zrotation Xrotation Yrotation
End Site
{
OFFSET 2.20 0 0
}
}
}
}
JOINT lPinky1
{
OFFSET 7.69 0.66 -3.90
CHANNELS 6 Xposition Yposition Zposition Zrotation Xrotation Yrotation
JOINT lPinky2
{
OFFSET 3.21 0 0
CHANNELS 6 Xposition Yposition Zposition Zrotation Xrotation Yrotation
JOINT lPinky3
{
OFFSET 1.92 0 0
CHANNELS 6 Xposition Yposition Zposition Zrotation Xrotation Yrotation
End Site
{
OFFSET 1.78 0 0
}
}
}
}
}
}
}
}
JOINT rCollar
{
OFFSET -4.06 26.61 -1.12
CHANNELS 6 Xposition Yposition Zposition Zrotation Xrotation Yrotation
JOINT rShldr
{
OFFSET -14.17 0 0
CHANNELS 6 Xposition Yposition Zposition Zrotation Xrotation Yrotation
JOINT rForeArm
{
OFFSET -26.12 0 0
CHANNELS 6 Xposition Yposition Zposition Zrotation Xrotation Yrotation
JOINT rHand
{
OFFSET -27.71 0 0
CHANNELS 6 Xposition Yposition Zposition Zrotation Xrotation Yrotation
JOINT rThumb1
{
OFFSET -2.29 -0.46 1.83
CHANNELS 6 Xposition Yposition Zposition Zrotation Xrotation Yrotation
JOINT rThumb2
{
OFFSET -5.29 0 0
CHANNELS 6 Xposition Yposition Zposition Zrotation Xrotation Yrotation
JOINT rThumb3
{
OFFSET -3.01 0 0
CHANNELS 6 Xposition Yposition Zposition Zrotation Xrotation Yrotation
End Site
{
OFFSET -2.62 0 0
}
}
}
}
JOINT rIndex1
{
OFFSET -9.37 0.29 2.59
CHANNELS 6 Xposition Yposition Zposition Zrotation Xrotation Yrotation
JOINT rIndex2
{
OFFSET -4.34 0 0
CHANNELS 6 Xposition Yposition Zposition Zrotation Xrotation Yrotation
JOINT rIndex3
{
OFFSET -2.16 0 0
CHANNELS 6 Xposition Yposition Zposition Zrotation Xrotation Yrotation
End Site
{
OFFSET -2.20 0 0
}
}
}
}
JOINT rMid1
{
OFFSET -9.47 0.83 0.29
CHANNELS 6 Xposition Yposition Zposition Zrotation Xrotation Yrotation
JOINT rMid2
{
OFFSET -4.77 0 0
CHANNELS 6 Xposition Yposition Zposition Zrotation Xrotation Yrotation
JOINT rMid3
{
OFFSET -2.87 0 0
CHANNELS 6 Xposition Yposition Zposition Zrotation Xrotation Yrotation
End Site
{
OFFSET -2.09 0 0
}
}
}
}
JOINT rRing1
{
OFFSET -8.65 1.01 -1.70
CHANNELS 6 Xposition Yposition Zposition Zrotation Xrotation Yrotation
JOINT rRing2
{
OFFSET -4.54 0 0
CHANNELS 6 Xposition Yposition Zposition Zrotation Xrotation Yrotation
JOINT rRing3
{
OFFSET -2.50 0 0
CHANNELS 6 Xposition Yposition Zposition Zrotation Xrotation Yrotation
End Site
{
OFFSET -2.20 0 0
}
}
}
}
JOINT rPinky1
{
OFFSET -7.69 0.66 -3.90
CHANNELS 6 Xposition Yposition Zposition Zrotation Xrotation Yrotation
JOINT rPinky2
{
OFFSET -3.21 0 0
CHANNELS 6 Xposition Yposition Zposition Zrotation Xrotation Yrotation
JOINT rPinky3
{
OFFSET -1.92 0 0
CHANNELS 6 Xposition Yposition Zposition Zrotation Xrotation Yrotation
End Site
{
OFFSET -1.78 0 0
}
}
}
}
}
}
}
}
}
}
JOINT lThigh
{
OFFSET 8.73 -0 0
CHANNELS 6 Xposition Yposition Zposition Zrotation Xrotation Yrotation
JOINT lShin
{
OFFSET 0 -46.66 0
CHANNELS 6 Xposition Yposition Zposition Zrotation Xrotation Yrotation
JOINT lFoot
{
OFFSET 0 -40.14 0
CHANNELS 6 Xposition Yposition Zposition Zrotation Xrotation Yrotation
JOINT lToes
{
OFFSET 0 -8.88 14.22
CHANNELS 6 Xposition Yposition Zposition Zrotation Xrotation Yrotation
End Site
{
OFFSET 0 0 6.29
}
}
}
}
}
JOINT rThigh
{
OFFSET -8.73 0 -0
CHANNELS 6 Xposition Yposition Zposition Zrotation Xrotation Yrotation
JOINT rShin
{
OFFSET 0 -46.66 0
CHANNELS 6 Xposition Yposition Zposition Zrotation Xrotation Yrotation
JOINT rFoot
{
OFFSET 0 -40.14 0
CHANNELS 6 Xposition Yposition Zposition Zrotation Xrotation Yrotation
JOINT rToes
{
OFFSET 0 -8.88 14.22
CHANNELS 6 Xposition Yposition Zposition Zrotation Xrotation Yrotation
End Site
{
OFFSET 0 0 6.29
}
}
}
}
}
}
MOTION
Frames: 5
Frame Time: 0.03
4.27 95.29 3.61 2.75 -1.59 5.86 0 7.23 0 -1.04 -0.27 -1.46 0 16.54 0 -0.23 1.31 -2.90 0 34.21 0 -0.20 29.96 -0.12 0 6.29 0 -2.19 -25.12 -4.11 4.06 26.61 -1.12 -14.41 -3.30 0.84 14.17 0 0 -65.87 19.07 -5.12 26.12 0 0 -0.21 0.02 -14.64 27.71 0 0 5.15 -5.04 -8.31 2.29 -0.46 1.83 66.01 60.33 -80.11 5.29 0 0 -27.34 6.14 -0.67 3.01 0 0 38.37 5.64 14.94 9.37 0.29 2.59 -17.18 -2.33 1.03 4.34 0 0 -21.96 -0.58 4.46 2.16 0 0 -10.36 -0.18 1.65 9.47 0.83 0.29 -25.15 -5.89 6.85 4.77 0 0 -23.45 -1.14 5.92 2.87 0 0 -9.87 -0.11 3.95 8.65 1.01 -1.70 -26.89 0.67 9.50 4.54 0 0 -34.84 -1.41 4.51 2.50 0 0 -2.46 0.04 1.26 7.69 0.66 -3.90 -22.33 -10.25 6.99 3.21 0 0 -20.36 -1.25 6.95 1.92 0 0 -8.30 -0.15 4.41 -4.06 26.61 -1.12 10.08 -4.20 -6.34 -14.17 0 0 71.55 11.72 -13.74 -26.12 0 0 0.15 0.01 10.44 -27.71 0 0 7.99 4.80 0 -2.29 -0.46 1.83 -56.68 54.33 75.02 -5.29 0 0 26.45 5.23 -10.74 -3.01 0 0 -34.22 14.29 -7.51 -9.37 0.29 2.59 22.99 -2.44 -3.49 -4.34 0 0 46.33 -3.04 -7.74 -2.16 0 0 27.89 -1.20 -4.47 -9.47 0.83 0.29 36.17 -6.82 -8.46 -4.77 0 0 44.28 -3.79 -9.53 -2.87 0 0 17.97 -0.55 -5.50 -8.65 1.01 -1.70 44.54 -1.07 -12.73 -4.54 0 0 41.69 -1.69 -4.45 -2.50 0 0 18.36 -0.29 -2.89 -7.69 0.66 -3.90 45.11 -13.36 -9.81 -3.21 0 0 44.40 -5.37 -13.12 -1.92 0 0 28.19 -2.16 -10.24 8.73 -0 0 -6.37 -3.87 13.32 0 -46.66 0 2.91 21.55 -5.67 0 -40.14 0 4.96 -13.65 8.63 0 -8.88 14.22 0 0 -0 -8.73 0 -0 -7.20 -24.45 -16.22 0 -46.66 0 -9.70 47.68 -5.16 0 -40.14 0 4.60 -6.56 -7.86 0 -8.88 14.22 0 0 0 
4.20 95.10 2.73 2.82 -0.97 6.89 0 7.23 0 -0.92 -0.31 -2.00 0 16.54 0 -0.51 1.23 -3.85 0 34.21 0 -0.25 29.88 -0.05 0 6.29 0 -1.92 -25.64 -3.88 4.06 26.61 -1.12 -14.38 -3.19 0.13 14.17 0 0 -62.32 20.27 -10.24 26.12 0 0 -0.25 0.03 -17.04 27.71 0 0 5.35 -6.51 -10 2.29 -0.46 1.83 66.01 60.33 -80.11 5.29 0 0 -27.23 6.18 -0.66 3.01 0 0 38.38 5.62 14.95 9.37 0.29 2.59 -17.15 -2.32 1.03 4.34 0 0 -22.05 -0.59 4.47 2.16 0 0 -10.40 -0.18 1.66 9.47 0.83 0.29 -25.06 -5.88 6.84 4.77 0 0 -23.44 -1.14 5.92 2.87 0 0 -9.87 -0.11 3.95 8.65 1.01 -1.70 -26.77 0.68 9.45 4.54 0 0 -34.82 -1.41 4.51 2.50 0 0 -2.39 0.04 1.25 7.69 0.66 -3.90 -22.07 -10.22 6.93 3.21 0 0 -20.24 -1.23 6.90 1.92 0 0 -8.16 -0.14 4.36 -4.06 26.61 -1.12 10.02 -4.22 -6.56 -14.17 0 0 72.00 10.91 -16.35 -26.12 0 0 0.15 0.01 10.22 -27.71 0 0 8.67 5.35 -0.50 -2.29 -0.46 1.83 -56.68 54.33 75.02 -5.29 0 0 26.03 5.32 -10.80 -3.01 0 0 -34.26 14.41 -7.57 -9.37 0.29 2.59 21.62 -2.34 -3.35 -4.34 0 0 44.82 -2.84 -7.54 -2.16 0 0 26.89 -1.11 -4.31 -9.47 0.83 0.29 35.17 -6.71 -8.49 -4.77 0 0 43.45 -3.66 -9.39 -2.87 0 0 17.28 -0.50 -5.34 -8.65 1.01 -1.70 43.91 -0.99 -12.81 -4.54 0 0 41.09 -1.64 -4.39 -2.50 0 0 17.82 -0.27 -2.83 -7.69 0.66 -3.90 44.24 -13.31 -9.97 -3.21 0 0 43.91 -5.26 -13.00 -1.92 0 0 27.74 -2.09 -10.11 8.73 -0 0 -6.01 -1.30 13.76 0 -46.66 0 2.86 20.86 -7.15 0 -40.14 0 4.62 -15.64 8.72 0 -8.88 14.22 0 0 -0 -8.73 0 -0 -8.32 -27.11 -17.44 0 -46.66 0 -6.67 38.44 -7.38 0 -40.14 0 5.31 -5.94 -9.08 0 -8.88 14.22 0 0 0 
4.14 94.62 1.69 2.97 -0.04 7.78 0 7.23 0 -0.75 -0.51 -2.39 0 16.54 0 -0.84 0.84 -4.57 0 34.21 0 -0.34 29.85 0 0 6.29 0 -1.75 -25.98 -3.88 4.06 26.61 -1.12 -14.58 -3.06 -0.65 14.17 0 0 -58.71 20.77 -14.83 26.12 0 0 -0.28 0.04 -19.40 27.71 0 0 5.96 -6.81 -10.82 2.29 -0.46 1.83 66.01 60.33 -80.11 5.29 0 0 -27.25 6.18 -0.67 3.01 0 0 38.01 5.42 14.67 9.37 0.29 2.59 -17.35 -2.34 1.04 4.34 0 0 -22.18 -0.60 4.50 2.16 0 0 -10.38 -0.18 1.65 9.47 0.83 0.29 -25.24 -5.90 6.87 4.77 0 0 -23.59 -1.15 5.96 2.87 0 0 -10.03 -0.11 3.99 8.65 1.01 -1.70 -26.88 0.67 9.37 4.54 0 0 -35.12 -1.44 4.54 2.50 0 0 -2.50 0.04 1.27 7.69 0.66 -3.90 -22.00 -10.21 6.91 3.21 0 0 -20.32 -1.24 6.93 1.92 0 0 -8.19 -0.14 4.37 -4.06 26.61 -1.12 9.76 -4.26 -6.85 -14.17 0 0 72.31 10.07 -18.72 -26.12 0 0 0.14 0.01 9.95 -27.71 0 0 9.29 6.61 -1.21 -2.29 -0.46 1.83 -56.68 54.33 75.02 -5.29 0 0 25.90 5.35 -10.81 -3.01 0 0 -34.02 14.20 -7.52 -9.37 0.29 2.59 19.95 -2.23 -3.27 -4.34 0 0 43.23 -2.63 -7.33 -2.16 0 0 25.29 -0.99 -4.05 -9.47 0.83 0.29 33.60 -6.53 -8.46 -4.77 0 0 42.05 -3.43 -9.14 -2.87 0 0 15.96 -0.41 -5.04 -8.65 1.01 -1.70 42.60 -0.82 -12.85 -4.54 0 0 40 -1.56 -4.30 -2.50 0 0 16.76 -0.23 -2.71 -7.69 0.66 -3.90 43.11 -13.21 -10.08 -3.21 0 0 43.16 -5.09 -12.82 -1.92 0 0 27.00 -1.98 -9.90 8.73 -0 0 -5.81 0.58 13.90 0 -46.66 0 3.01 20.75 -8.25 0 -40.14 0 4.14 -17.92 8.79 0 -8.88 14.22 0 0 0 -8.73 0 -0 -9.45 -29.06 -18.50 0 -46.66 0 -4.04 27.49 -8.96 0 -40.14 0 5.72 -4.96 -10.77 0 -8.88 14.22 0 0 0 
4.08 93.84 0.80 3.39 0.86 8.14 0 7.23 0 -0.76 -0.71 -2.55 0 16.54 0 -1.24 0.46 -4.86 0 34.21 0 -0.42 29.78 0.03 0 6.29 0 -1.72 -26.28 -4.08 4.06 26.61 -1.12 -14.77 -2.95 -1.24 14.17 0 0 -55.54 20.88 -19.04 26.12 0 0 -0.31 0.05 -21.42 27.71 0 0 7.17 -8.33 -10.14 2.29 -0.46 1.83 66.01 60.33 -80.11 5.29 0 0 -27.26 6.17 -0.67 3.01 0 0 37.63 5.21 14.38 9.37 0.29 2.59 -17.82 -2.38 1.09 4.34 0 0 -22.42 -0.62 4.54 2.16 0 0 -10.46 -0.18 1.67 9.47 0.83 0.29 -25.68 -5.94 6.97 4.77 0 0 -23.86 -1.18 6.02 2.87 0 0 -10.29 -0.13 4.05 8.65 1.01 -1.70 -27.21 0.64 9.30 4.54 0 0 -35.60 -1.47 4.60 2.50 0 0 -2.71 0.04 1.30 7.69 0.66 -3.90 -22.13 -10.23 6.94 3.21 0 0 -20.61 -1.28 7.03 1.92 0 0 -8.37 -0.15 4.43 -4.06 26.61 -1.12 9.47 -4.31 -7.32 -14.17 0 0 72.24 9.19 -20.62 -26.12 0 0 0.14 0.01 9.56 -27.71 0 0 9.95 8.72 -2.78 -2.29 -0.46 1.83 -56.68 54.33 75.02 -5.29 0 0 25.65 5.40 -10.85 -3.01 0 0 -33.54 13.79 -7.41 -9.37 0.29 2.59 18.02 -2.10 -3.20 -4.34 0 0 41.73 -2.44 -7.12 -2.16 0 0 23.25 -0.83 -3.71 -9.47 0.83 0.29 31.54 -6.31 -8.44 -4.77 0 0 40.19 -3.14 -8.81 -2.87 0 0 14.11 -0.30 -4.62 -8.65 1.01 -1.70 40.85 -0.60 -12.90 -4.54 0 0 38.27 -1.43 -4.14 -2.50 0 0 15.11 -0.18 -2.53 -7.69 0.66 -3.90 41.40 -13.02 -10.22 -3.21 0 0 41.87 -4.80 -12.50 -1.92 0 0 25.62 -1.78 -9.49 8.73 -0 0 -5.87 2.52 14.04 0 -46.66 0 3.16 20.87 -8.86 0 -40.14 0 3.55 -20.33 8.85 0 -8.88 14.22 0 0 -0 -8.73 0 -0 -10.45 -30.72 -18.97 0 -46.66 0 -3.03 20.86 -9.52 0 -40.14 0 7.57 -4.94 -11.57 0 -8.88 14.22 0 0 0 
3.94 92.98 0.25 3.83 1.32 8.23 0 7.23 0 -0.80 -0.76 -2.69 0 16.54 0 -1.59 0.36 -5.12 0 34.21 0 -0.46 29.68 0.07 0 6.29 0 -1.64 -26.71 -4.00 4.06 26.61 -1.12 -14.79 -2.90 -1.55 14.17 0 0 -53.53 20.16 -22.10 26.12 0 0 -0.33 0.06 -22.99 27.71 0 0 7.57 -9.45 -9.46 2.29 -0.46 1.83 66.01 60.33 -80.11 5.29 0 0 -27.23 6.18 -0.66 3.01 0 0 37.56 5.17 14.33 9.37 0.29 2.59 -18.32 -2.42 1.16 4.34 0 0 -22.77 -0.65 4.61 2.16 0 0 -10.83 -0.19 1.74 9.47 0.83 0.29 -26.11 -5.99 7.07 4.77 0 0 -24.21 -1.22 6.10 2.87 0 0 -10.61 -0.14 4.14 8.65 1.01 -1.70 -27.60 0.59 9.34 4.54 0 0 -36.00 -1.51 4.64 2.50 0 0 -2.97 0.04 1.33 7.69 0.66 -3.90 -22.38 -10.25 6.99 3.21 0 0 -20.79 -1.30 7.09 1.92 0 0 -8.63 -0.16 4.52 -4.06 26.61 -1.12 9.32 -4.35 -7.71 -14.17 0 0 71.77 7.94 -21.91 -26.12 0 0 0.13 0.01 8.83 -27.71 0 0 10.27 11.21 -4.85 -2.29 -0.46 1.83 -56.68 54.33 75.02 -5.29 0 0 24.86 5.58 -10.95 -3.01 0 0 -33.22 13.62 -7.39 -9.37 0.29 2.59 15.73 -1.93 -3.14 -4.34 0 0 38.99 -2.11 -6.73 -2.16 0 0 20.95 -0.68 -3.32 -9.47 0.83 0.29 29.02 -6.04 -8.39 -4.77 0 0 37.99 -2.80 -8.40 -2.87 0 0 11.88 -0.18 -4.11 -8.65 1.01 -1.70 38.75 -0.34 -12.90 -4.54 0 0 36.13 -1.28 -3.94 -2.50 0 0 13.00 -0.12 -2.29 -7.69 0.66 -3.90 38.94 -12.74 -10.42 -3.21 0 0 40.10 -4.41 -12.06 -1.92 0 0 23.79 -1.53 -8.95 8.73 -0 0 -5.83 5.47 14.43 0 -46.66 0 3.12 20.12 -9.39 0 -40.14 0 2.95 -21.74 8.83 0 -8.88 14.22 0 0 0 -8.73 0 -0 -11.91 -35.00 -19.91 0 -46.66 0 -2.15 15.78 -9.91 0 -40.14 0 10.58 -8.72 -10.35 0 -8.88 14.22 0 0 0 
